<svg width="12" height="12" viewBox="0 0 12 12" fill="none" xmlns="http://www.w3.org/2000/svg">
<path d="M8.8242 0.175801C8.76858 0.119975 8.70246 0.0757024 8.62966 0.0455312C8.55686 0.0153601 8.47881 -0.000113669 8.4 6.28604e-07H3.6C3.52119 -0.000113669 3.44314 0.0153601 3.37034 0.0455312C3.29754 0.0757024 3.23142 0.119975 3.1758 0.175801L0.175801 3.1758C0.119975 3.23142 0.0757024 3.29754 0.0455312 3.37034C0.0153601 3.44314 -0.000113669 3.52119 6.28604e-07 3.6V8.4C6.28604e-07 8.5596 0.0630006 8.712 0.175801 8.8242L3.1758 11.8242C3.23142 11.88 3.29754 11.9243 3.37034 11.9545C3.44314 11.9846 3.52119 12.0001 3.6 12H8.4C8.5596 12 8.712 11.937 8.8242 11.8242L11.8242 8.8242C11.88 8.76858 11.9243 8.70246 11.9545 8.62966C11.9846 8.55686 12.0001 8.47881 12 8.4V3.6C12.0001 3.52119 11.9846 3.44314 11.9545 3.37034C11.9243 3.29754 11.88 3.23142 11.8242 3.1758L8.8242 0.175801ZM6.6 9H5.4V7.8H6.6V9ZM6.6 6.6H5.4V3H6.6V6.6Z" fill="#E80000"/>
</svg>
