<svg width="116" height="24" viewBox="0 0 116 24" fill="none" xmlns="http://www.w3.org/2000/svg">
<path d="M6.8395 23.8281C6.47848 23.8281 6.09724 23.8281 5.70156 23.7876C3.79247 23.6574 2.33972 22.8416 1.38373 21.3662C-0.196098 18.9332 -0.424264 14.7732 0.705013 8.9988C1.24227 6.31243 1.96214 3.66596 2.85959 1.07788L3.40257 1.27749C3.35058 1.41925 -1.71817 15.5311 1.86606 21.0509C2.73251 22.3672 4.02353 23.0933 5.74199 23.209C9.64103 23.481 11.7407 22.3238 12.8122 21.2852C13.9675 20.1714 14.2217 18.9708 14.2188 18.8146H14.7964C14.7964 19.2399 14.4181 20.5504 13.2108 21.7076C12.1653 22.7028 10.2331 23.8281 6.8395 23.8281Z" fill="black"/>
<path d="M17.8123 1.12474L15.1133 15.6408L15.6812 15.7467L18.3802 1.23068L17.8123 1.12474Z" fill="black"/>
<path d="M24.7945 7.64279L21.6494 22.7488L22.2149 22.867L25.36 7.76091L24.7945 7.64279Z" fill="black"/>
<path d="M26.0802 1.03216L25.5801 1.32172L38.4615 23.6429L38.9616 23.3533L26.0802 1.03216Z" fill="black"/>
<path d="M42.3854 0.657214L39.3062 16.644L39.8733 16.7536L42.9526 0.766822L42.3854 0.657214Z" fill="black"/>
<path d="M59.0162 0.476702L44.6287 23.2645L45.361 23.7284L59.7485 0.940588L59.0162 0.476702Z" fill="black"/>
<path d="M60.1147 6.38505L59.2791 6.6145L63.93 23.6086L64.7656 23.3791L60.1147 6.38505Z" fill="black"/>
<path d="M62.7633 17.2727H52.5969V18.1406H62.7633V17.2727Z" fill="black"/>
<path d="M74.9808 0.581818L70.4775 22.6843L71.3267 22.8578L75.8299 0.755396L74.9808 0.581818Z" fill="black"/>
<path d="M97.0977 6.98023L93.707 23.4091L94.5555 23.5848L97.9462 7.15593L97.0977 6.98023Z" fill="black"/>
<path d="M98.1557 0.500743L97.408 0.93927L110.727 23.7248L111.475 23.2862L98.1557 0.500743Z" fill="black"/>
<path d="M114.628 0.146672L111.424 16.4893L112.274 16.6566L115.478 0.313908L114.628 0.146672Z" fill="black"/>
<path d="M73.9375 23.3277V22.4598C74.1657 22.4598 88.1358 22.3556 90.169 11.2843C90.7062 8.37106 90.2153 6.01909 88.7105 4.29199C85.4902 0.591894 78.6135 0.869618 78.5586 0.872511L78.5153 0.00462331C79.8786 -0.0248477 81.2413 0.0866392 82.5818 0.337314C85.5624 0.88119 87.9076 2.05284 89.3661 3.72497C91.0557 5.66036 91.6131 8.25824 91.0268 11.4463C88.8636 23.2148 74.2061 23.3277 73.9375 23.3277Z" fill="black"/>
</svg>
